<svg xmlns="http://www.w3.org/2000/svg" width="83" height="301" viewBox="0 0 83 301" fill="none">
    <g clip-path="url(#clip0_346_546)">
    <mask id="mask0_346_546" style="mask-type:luminance" maskUnits="userSpaceOnUse" x="-137" y="0" width="301" height="301">
    <path d="M-136.932 119.94L-17.06 300.055L163.054 180.183L43.1826 0.0688149L-136.932 119.94Z" fill="white"/>
    </mask>
    <g mask="url(#mask0_346_546)">
    <path fill-rule="evenodd" clip-rule="evenodd" d="M56.353 129.55C53.839 101.893 46.458 73.2619 29.533 51.2679C23.376 43.2646 15.791 37.1108 8.083 30.7409C7.543 30.2934 6.738 30.3692 6.288 30.9109C5.84 31.4553 5.91501 32.2601 6.46001 32.7085C14.018 38.9563 21.473 44.9749 27.511 52.8235C44.196 74.5053 51.393 102.763 53.836 130.023L53.419 130.094C48.897 130.857 44.451 135.208 40.805 141.305C35.577 150.044 31.87 162.305 31.392 171.437C31.178 175.54 31.632 179.034 32.805 181.384C33.718 183.217 35.064 184.414 36.822 184.862C40.569 185.813 44.194 183.279 47.204 178.545C53.5 168.647 57.526 149.204 57.103 140.393C56.97 137.642 56.795 134.87 56.57 132.088C57.361 131.932 58.137 131.783 58.898 131.672C61.068 131.361 63.149 131.368 65.373 132.57C68.837 134.447 71.415 137.745 73.385 141.566C76.455 147.529 78.022 154.776 78.9 160.295C83.785 191.031 72.833 215.152 58.208 233.913C43.435 252.857 24.921 266.373 14.919 275.728C14.404 276.208 14.38 277.015 14.86 277.53C15.34 278.045 16.148 278.072 16.662 277.589C26.729 268.175 45.35 254.552 60.219 235.479C75.236 216.224 86.434 191.447 81.421 159.895C80.507 154.146 78.851 146.608 75.654 140.398C73.439 136.1 70.485 132.439 66.587 130.326C63.087 128.432 59.892 128.88 56.353 129.55ZM54.05 132.575L53.842 132.608C49.889 133.275 46.183 137.282 42.995 142.614C37.972 151.012 34.4 162.792 33.942 171.571C33.783 174.581 33.989 177.224 34.663 179.219C35.222 180.864 36.082 182.042 37.449 182.387C38.739 182.718 39.977 182.366 41.156 181.562C42.541 180.619 43.834 179.089 45.051 177.178C51.101 167.667 54.962 148.982 54.555 140.516C54.427 137.887 54.261 135.238 54.05 132.575Z" fill="#FF2E00"/>
    <path fill-rule="evenodd" clip-rule="evenodd" d="M3.003 30.2343C3.52 30.0232 4.29899 29.9521 5.13799 29.8857C7.13699 29.7253 9.46 29.8454 10.557 29.8574C11.263 29.8636 11.837 29.2959 11.845 28.5928C11.851 27.8868 11.286 27.3108 10.58 27.3046C9.237 27.2914 6.14099 27.1372 3.87299 27.4567C2.65599 27.629 1.651 27.9672 1.072 28.425C0.0849996 29.2028 -0.017006 30.461 1.10999 32.0703C2.44499 33.9732 5.80599 36.9198 6.64199 40.7036C6.79299 41.3901 7.478 41.8256 8.162 41.6724C8.852 41.5202 9.286 40.8398 9.134 40.1505C8.335 36.5437 5.57599 33.5556 3.85499 31.4541C3.52799 31.0542 3.195 30.5417 3.003 30.2343Z" fill="#FF2E00"/>
    </g>
    </g>
    <defs>
    <clipPath id="clip0_346_546">
    <rect width="83" height="301" fill="white"/>
    </clipPath>
    </defs>
    </svg>